
<global>
amp_veltrack=0
ampeg_release=0.35
</global>

<group>
group_label=PP
lpc_hicc1=42
lpc_locc1=0

<region>
hikey=a3
hivel=127
lokey=g#3
loop_end=272610
loop_mode=loop_continuous
loop_start=100721
loop_xfade=20828
lovel=0
lpc=6HKEQb/EHMLwDRBC4N1dwYKLDj/7mCTAaRanQNMW6r9gFEu/44onPT4w4b9PPJpA9VOJwOeOPr6xy3xAoMNuwCnaAEB8ZkK/iiiTP4Ailz6PEvS/ldcyv8qcWUB1XMy/
lpc_rms=-43.00
pitch_keycenter=a3
sample=Violin1Solo_espressivo_PP_A3.opus
tune=+1
</region>

<region>
hikey=a4
hivel=127
lokey=g#4
loop_end=265324
loop_mode=loop_continuous
loop_start=98029
loop_xfade=20271
lovel=0
lpc=JMqnQfulVsL8CWVC0JwCwkJzPEEb+xnBL3hDQXKU+sDfArI/fNaDQHk3EcGTAgtBdTeOv3NbBcGR+ENBDckBwdYuT0AM6Li+GMA/vxVwqT/SXxTAettlQFfbh8DRthVA
lpc_rms=-37.09
offset=551
pitch_keycenter=a4
sample=Violin1Solo_espressivo_PP_A4.opus
tune=-2
</region>

<region>
hikey=a5
hivel=127
lokey=g#5
loop_end=264538
loop_mode=loop_continuous
loop_start=97739
loop_xfade=20211
lovel=0
lpc=NYARQRVwe8Hl+X5BpAsUwfq2yUAKV1rAmDUuQJ7xQL6gTxS/kURvQDfwasCgo3VADSexv/K2sz/CDXg+Zbr2PiaCET9jnpQ+E0TeP3CE/r+qzFpAgckXwPlHNkCgiOq9
lpc_rms=-40.57
offset=232
pitch_keycenter=a5
sample=Violin1Solo_espressivo_PP_A5.opus
tune=+1
</region>

<region>
end=288930
hikey=a6
hivel=127
lokey=g#6
loop_end=233194
loop_mode=loop_continuous
loop_start=69843
loop_xfade=23803
lovel=0
lpc=m6SWQWUqpsEA3ilBmbmOv/S44L+yf88/MhcVwO5eSECod0jAwzqiQNQCr766B+e9xiFvQLgpPsHveHa/pjw6QQUKGsHaJpZAp0gIvyeM4T42IOI/PRTuv8qUpj+kcCrA
lpc_rms=-37.16
offset=4404
pitch_keycenter=a6
sample=Violin1Solo_espressivo_PP_A6.opus
tune=-4
</region>

<region>
hikey=b3
hivel=127
lokey=a#3
loop_end=258557
loop_mode=loop_continuous
loop_start=95529
loop_xfade=19754
lovel=0
lpc=6JIMQsWRq8JlYKBCiQUGwiRhD0ARFcG/s4ySQFiTdz+tcT7AF1G3PHOfLMDwew5Bl+/5wMAFf78EZQ9BObcXwRq74kBIfXfAuxZ/QGb+xz7joc/ATn4aP8O9vkDruVjA
lpc_rms=-36.99
offset=448
pitch_keycenter=b3
sample=Violin1Solo_espressivo_PP_B3.opus
tune=-1
</region>

<region>
hikey=b4
hivel=127
lokey=a#4
loop_end=268124
loop_mode=loop_continuous
loop_start=99064
loop_xfade=20485
lovel=0
lpc=GuuvQcO0SsKjZ1NCKakKwppAq0FN2YHBrk4XQaHme8BL0pJAqNhZwN09Z79HSjpAXnZJwLSrEsA9vhxBPfcNweTWiUBuqGXAiQZ4QOHRBL8jSCu/QWqZPu7Zmb8ipQxA
lpc_rms=-35.63
pitch_keycenter=b4
sample=Violin1Solo_espressivo_PP_B4.opus
tune=+1
</region>

<region>
hikey=b5
hivel=127
lokey=a#5
loop_end=269873
loop_mode=loop_continuous
loop_start=99710
loop_xfade=20619
lovel=0
lpc=56ofQfXMWcGCeEBBWxzuwH5jgUC2gQXAdFOPP/t9rr5Z0Ya+MKqKP7kS6b4FOBK/Bj/fP+WwE8BD6g5Av4OJv3W34T2ILj0/zZspv9kvVz+Lg/6+6MfRvjm5EUBwNpjA
lpc_rms=-43.11
offset=5066
pitch_keycenter=b5
sample=Violin1Solo_espressivo_PP_B5.opus
</region>

<region>
end=297330
hikey=E7
hivel=127
lokey=a#6
loop_end=284738
loop_mode=loop_continuous
loop_start=80521
loop_xfade=34318
lovel=0
lpc=1bUXQfgiT8GCLRdBw4iSwB8+9z/NQPq/VgiWP0lDTL0jrT4/+HLnP6mA97543Wi/bYnVwOxQAUFiAoTAfFuvPxGLhjzSSbw/FYNpv0r7AD+nGoe+Ydz2v4UdLz9I6UA/
lpc_rms=-47.73
offset=7803
pitch_keycenter=b6
sample=Violin1Solo_espressivo_PP_B6.opus
tune=-19
</region>

<region>
hikey=c#4
hivel=127
lokey=c4
loop_end=273137
loop_mode=loop_continuous
loop_start=100916
loop_xfade=20868
lovel=0
lpc=CfcWQt+zwMJBWb5CifsowrqqmD8uiY8/8aqpQD9ihT+VovXAHwvDQIcqmMB05yBBbWsgwRC7s7+9TIJBjw2PwQo7BkE366k+5OBpvzxg9T/6wbPASJetvvMyH0DK9/g+
lpc_rms=-36.08
pitch_keycenter=c#4
sample=Violin1Solo_espressivo_PP_C#4.opus
tune=-1
</region>

<region>
hikey=c#5
hivel=127
lokey=c5
loop_end=272215
loop_mode=loop_continuous
loop_start=100575
loop_xfade=20798
lovel=0
lpc=t3EuQQqVx8EyD85B4CJ7wQwZEEED6AfBErbZQKywgsC1LhhACdS7vrqzHT0Mmc2/P0FCQINwPMCN0yhAB2yUv0ksC7/kThC/uaUPQJ7bU78+KlO/oyv6P3QTxr+vFlo/
lpc_rms=-41.48
offset=304
pitch_keycenter=c#5
sample=Violin1Solo_espressivo_PP_C#5.opus
tune=-3
</region>

<region>
end=292661
hikey=c#6
hivel=127
lokey=c6
loop_end=267817
loop_mode=loop_continuous
loop_start=80700
loop_xfade=23690
lovel=0
lpc=q10bQQo3QsEGcwxBzi2owCH4S0BkE8S/PSdHP9ZZZT4oUWW/ijHZP0/zjb8WbPs+ypKxPtEPKb51DOe8O2knP/G/NL8e4CQ/IbhVPuKnYr8MdjhAcHYIwTI8jEB7Kc2+
lpc_rms=-42.68
offset=4489
pitch_keycenter=c#6
sample=Violin1Solo_espressivo_PP_C#6.opus
tune=-6
</region>

<region>
end=301933
hikey=d#4
hivel=127
lokey=d4
loop_end=266390
loop_mode=loop_continuous
loop_start=60811
loop_xfade=23752
lovel=0
lpc=qKQUQXa3tMECP7FB9EAiwY5C3D9POti/SrVRQHCdyr/p/+a+okYFP6TFCL9Fv8o/HXsBwOuVgb50cG5A6k+OwMB0C0Cz9908ucRrvGuasD6ox8q+HdTtv2DsP0B2+Ja/
lpc_rms=-48.45
offset=13441
pitch_keycenter=d#4
sample=Violin1Solo_espressivo_PP_D#4.opus
tune=-2
</region>

<region>
hikey=d#5
hivel=127
lokey=d5
loop_end=261498
loop_mode=loop_continuous
loop_start=96616
loop_xfade=19979
lovel=0
lpc=Ip4QQXxOpsGsZaJBVUZCwTmG+EAZAc7AynWuQDmQicBkDzZAr8NDvcW00L4+/m+/5Y+0P2iFJcBP8n5A2FUXwMhWET9yp4O/iP8AQFD8OD31kve/QMQiQDZ+TsBXkQhA
lpc_rms=-44.67
offset=496
pitch_keycenter=d#5
sample=Violin1Solo_espressivo_PP_D#5.opus
tune=+1
</region>

<region>
hikey=d#6
hivel=127
lokey=d6
loop_end=261164
loop_mode=loop_continuous
loop_start=96492
loop_xfade=19953
lovel=0
lpc=RHdtQcx2qMG0BH1BcuujwM/KgL+jH4A/Pv1CP222br9eCPY+72IPQEINJ8AVewlAEVhPPsYhi71uJ4y9zo7LP8polL9XN6k/2mQwvlTdL8FGFUxBvC3TwMTjOD+SV94/
lpc_rms=-38.10
offset=1347
pitch_keycenter=d#6
sample=Violin1Solo_espressivo_PP_D#6.opus
</region>

<region>
hikey=f4
hivel=127
lokey=e4
loop_end=269410
loop_mode=loop_continuous
loop_start=99539
loop_xfade=20583
lovel=0
lpc=wHBwQdAUDsIy3QZCngKEweObwUDXn9XAy2PUQBuvPcAbcwM/a1HvP6NJt8DuhtBAiTpRwIFhIr8iS3lA+OqvwI37jEDe6iPAwxisP/KmlT/hG9+/s5ZOv9BO2D9uhqG+
lpc_rms=-41.91
offset=2043
pitch_keycenter=f4
sample=Violin1Solo_espressivo_PP_F4.opus
tune=-3
</region>

<region>
end=295204
hikey=f5
hivel=127
lokey=e5
loop_end=267186
loop_mode=loop_continuous
loop_start=69531
loop_xfade=23775
lovel=0
lpc=OmrYQAdrXMHJPlFBcEblwIY/nEDgu5nAWG9FQFzukL+/lPs+W2sNvuku9L5Vi/E+xakeP3hr779uSFNAHa3Uvy9cmr/3McM/mLJIPvsJwD9GpSPAH8dGP4MsrD+/gV6/
lpc_rms=-46.66
offset=2481
pitch_keycenter=f5
sample=Violin1Solo_espressivo_PP_F5.opus
tune=-3
</region>

<region>
end=293119
hikey=f6
hivel=127
lokey=e6
loop_end=247663
loop_mode=loop_continuous
loop_start=60628
loop_xfade=23746
lovel=0
lpc=8REyQUyrdcFL9kxB93m+wN0OAkAfYjnAOLTiP92Job+3X6g/NtLSPi6ijL93da4/98JqvRedU7+PugVAWTlNv8H02L4Ree/A+PEfQcT998Cr2GVAGISsv2RoQEAHy/e+
lpc_rms=-41.81
offset=2001
pitch_keycenter=f6
sample=Violin1Solo_espressivo_PP_F6.opus
tune=-4
</region>

<region>
hivel=127
key=g3
loop_end=265911
loop_mode=loop_continuous
loop_start=98246
loop_xfade=20316
lovel=0
lpc=t+KoQaELW8JT4GBC0LjCwe0+db9ktyBAF269P1AYZjoHk/6+bN+Fv+bM2r/dZZ1A+SNgwL+EXD/pVuA/yVmwwB4rtUCAnE4+KYSGwAr5V0AbpaS/yK8Fv6HtFUDpFqS/
lpc_rms=-42.26
offset=428
sample=Violin1Solo_espressivo_PP_G3.opus
</region>

<region>
hikey=g4
hivel=127
lokey=f#4
loop_end=264910
loop_mode=loop_continuous
loop_start=97876
loop_xfade=20240
lovel=0
lpc=+5+fQZSXSsIQbFNCMzTowT+XGUGzreDAx7kTQY/QxMDUBD1AK9G+P4x0AsEF8hdBQr6ZwJrMLcDtBe1Af+exwK7c/z8rzwS/YPakPtQrEkDIlbDArKuUQFDmQ8BufgJA
lpc_rms=-39.07
offset=2926
pitch_keycenter=g4
sample=Violin1Solo_espressivo_PP_G4.opus
tune=-1
</region>

<region>
hikey=g5
hivel=127
lokey=f#5
loop_end=277055
loop_mode=loop_continuous
loop_start=102363
loop_xfade=21167
lovel=0
lpc=e2PWQEb8PsF4GyxBa9O/wAWme0CECi7Ag5M9QMrzLMD5lB9AqDqjPnsKxL/krKU/r8UbvzoGLT9xiFE/7n3NvqZN5j42Fyo/FJC/v3Q01D9UfMe+dxW3P6vIC8D2oAhA
lpc_rms=-44.66
offset=3047
pitch_keycenter=g5
sample=Violin1Solo_espressivo_PP_G5.opus
</region>

<region>
hikey=g6
hivel=127
lokey=f#6
loop_end=269248
loop_mode=loop_continuous
loop_start=99479
loop_xfade=20571
lovel=0
lpc=yUjdQF7cAcG4Pq9AGXIFwH8GyT63Ioa/zz/kPwbb7b9naIc/dKRNP47ca78JG6c/5GLBvpnSij6vPUg/fRPBwN9xq0AonOi/1peRvsJqMT+fo74/ndflv81lB0AuRXG/
lpc_rms=-45.75
offset=2251
pitch_keycenter=g6
sample=Violin1Solo_espressivo_PP_G6.opus
</region>
</group>

<group>
group_label=MF
lpc_hicc1=84
lpc_locc1=43

<region>
hikey=a3
hivel=127
lokey=g#3
loop_end=271002
loop_mode=loop_continuous
loop_start=100127
loop_xfade=20705
lovel=0
lpc=qztjQVvPGMJUNzRCsFrpwSpVI0EvCDnAyWFOQDpwOsCLx/c/KIJ6v7U9GcCtpMNAiEWiwJ17b79uNolA/FZLwAV37T9I1c2/ftiLPxdHzz9g3BzArfM5P5pk073F9AA/
lpc_rms=-30.30
pitch_keycenter=a3
sample=Violin1Solo_espressivo_MF_A3.opus
tune=-1
</region>

<region>
hikey=a4
hivel=127
lokey=g#4
loop_end=268163
loop_mode=loop_continuous
loop_start=99078
loop_xfade=20488
lovel=0
lpc=rq9mQe5yEsKHDSFCOb/NwWqtTUGJC0DBhahfQbOuHsFwg0pARr87QFwDysA4TYVAN0USP0L5m8DN3c5AXAeowMu2oUAypJTAwygtQKtAlT794iK/pCCPvnBQBL/HRDo/
lpc_rms=-26.68
pitch_keycenter=a4
sample=Violin1Solo_espressivo_MF_A4.opus
</region>

<region>
hikey=a5
hivel=127
lokey=g#5
loop_end=264320
loop_mode=loop_continuous
loop_start=97658
loop_xfade=20194
lovel=0
lpc=qSQKQZ7+IMH4MSFBrThqwIDqbUAQsIq/j9UgQD9CkT8GvFu/1OeRQFsvNsAHi4NA1E+ZvszrWT9mkBVAKA7GvrAnI0C6nSa/LVZcQAbC6b+iu2xAE2L9PkIynr9jaY9A
lpc_rms=-28.35
pitch_keycenter=a5
sample=Violin1Solo_espressivo_MF_A5.opus
tune=+1
</region>

<region>
hikey=a6
hivel=127
lokey=g#6
loop_end=259503
loop_mode=loop_continuous
loop_start=95879
loop_xfade=19826
lovel=0
lpc=LLjHQdDVn8Ho9AxB+c52Pl3IsUAHk8K+uclsPkLTEkCqqYU/4e66QE0REkBpMfK/v+XlQDozbsGXbdPAuixwQeDPFcHRWApA0oWzwH+3gUCETwjAScR2P9v6SsDiSljA
lpc_rms=-24.71
offset=2896
pitch_keycenter=a6
sample=Violin1Solo_espressivo_MF_A6.opus
</region>

<region>
hikey=b3
hivel=127
lokey=a#3
loop_end=269088
loop_mode=loop_continuous
loop_start=99420
loop_xfade=20559
lovel=0
lpc=FQ8LQmjNvcIh/9lCTPCDwk1ZfUFfpN4/UFhdQNPrr8BTWr0/X7uSQHcka8EOVqhB0UJywS2azT/4WQtBVYsVwV5KCEE4QMPAIqGIPyAxSkBt3Cy/A3u7wL2ypkCUKom/
lpc_rms=-22.78
pitch_keycenter=b3
sample=Violin1Solo_espressivo_MF_B3.opus
</region>

<region>
hikey=b4
hivel=127
lokey=a#4
loop_end=265157
loop_mode=loop_continuous
loop_start=97968
loop_xfade=20258
lovel=0
lpc=QRuUQYkwJ8KYEipCBo7KwcU+TUHmaiTBKpEAQXW9usArdeJAhBbbwH2ShkByr3G/FPgWwLs7V79pfANB4tkTwcs7v0BRdEbAIHmmvVxCTECddLe/Jq/gv2gNwT96e4g/
lpc_rms=-24.20
offset=298
pitch_keycenter=b4
sample=Violin1Solo_espressivo_MF_B4.opus
</region>

<region>
hikey=b5
hivel=127
lokey=a#5
loop_end=265076
loop_mode=loop_continuous
loop_start=97938
loop_xfade=20252
lovel=0
lpc=PjIrQU6ROcEvWCNBxzCawLQgckD0iMa/vhKsPz5r6D9Z3Pe/jKpXQHOTTL9ZxLo+ErcKQB67hb+IIKw/pOieP12ah78XAiVAB2Z1viXjtb2oVyJA/YYBwOBDlUBXfa7A
lpc_rms=-30.62
pitch_keycenter=b5
sample=Violin1Solo_espressivo_MF_B5.opus
tune=+1
</region>

<region>
end=292513
hikey=E7
hivel=127
lokey=a#6
loop_end=270105
loop_mode=loop_continuous
loop_start=65554
loop_xfade=32177
lovel=0
lpc=PpeiQcf3bsHvStVA3S2TvfPaND+pTRDATW5UwFpaIkCQ9cU//2ijQNbE/Tucs54/SPKZwY7UL0FiXwu/mr88wHwxIUCQdUQ/oFWgQJElRr8TL/a/Ehs8wCFy279P2RZA
lpc_rms=-30.20
pitch_keycenter=B6
sample=Violin1Solo_espressivo_MF_B6.opus
tune=-16
</region>

<region>
hikey=c#4
hivel=127
lokey=c4
loop_end=263621
loop_mode=loop_continuous
loop_start=97400
loop_xfade=20141
lovel=0
lpc=AfkJQgbWw8I/W+VCXwCIwunaakG1d+A+SCu4QDjzzMCQ+oFA0cjdv1JjscBw6UxBglUSwR8mg8Aw0mFBPC9NwRlKGEGgxrDAMJQqQJzWyb4WD2LAHYI/QHrJJsB9KvM/
lpc_rms=-23.47
offset=748
pitch_keycenter=c#4
sample=Violin1Solo_espressivo_MF_C#4.opus
tune=+1
</region>

<region>
hikey=c#5
hivel=127
lokey=c5
loop_end=265221
loop_mode=loop_continuous
loop_start=97991
loop_xfade=20263
lovel=0
lpc=apIbQYaNsMHhsblBeWRmwXD12UCGs6XAFmGSQJcSScBBXlU/R3UUQLseDcD8mds+mZREPx+4LMBII7xAsJbRwPZHo0D0q5XAw/WdQGzcc8AI3h1AIQ4Cv/fvl79wF68/
lpc_rms=-28.09
offset=3503
pitch_keycenter=c#5
sample=Violin1Solo_espressivo_MF_C#5.opus
tune=-2
</region>

<region>
end=286546
hikey=c#6
hivel=127
lokey=c6
loop_end=213435
loop_mode=loop_continuous
loop_start=80863
loop_xfade=23256
lovel=0
lpc=Q/FkQRHHPsGvmrpATx9bwJPZPUC/iuG/udIDQFRZFb+vVyI/u7iDP71Rd77wVA8/wQP9PtAX/j7Ckgu/KwvoP02bMr7EgcG+XJYRQNdaHMCqUp5Ad4sowZHr1L20O1xA
lpc_rms=-32.33
pitch_keycenter=c#6
sample=Violin1Solo_espressivo_MF_C#6.opus
tune=-2
</region>

<region>
hikey=d#4
hivel=127
lokey=d4
loop_end=265247
loop_mode=loop_continuous
loop_start=98001
loop_xfade=20265
lovel=0
lpc=VmdBQRCkBMKBDR1COu3Bwedp60C2WwfAD/5MQI0dLcAlDwhA8yWUv6PeMcC75NdA19aewMmykr+S0p1An1iVwDyYhED/wIPA6l82QFZS5L7dbIE/TsJDwCq6JUBA1wm/
lpc_rms=-31.92
offset=67
pitch_keycenter=d#4
sample=Violin1Solo_espressivo_MF_D#4.opus
</region>

<region>
hikey=d#5
hivel=127
lokey=d5
loop_end=267432
loop_mode=loop_continuous
loop_start=98808
loop_xfade=20432
lovel=0
lpc=aaTXQNyjacE9cFFBjFe7wLVUSkASw6XAeq3OQK5FnMCUjlNAhAkYwMy0xz/Iq52/U0+4P0+OFr+OMHQ/YwIBwDyyoT9G9VA/bo27v+HLXz8uXJW+tMDmPnr+m74pa64+
lpc_rms=-32.09
pitch_keycenter=d#5
sample=Violin1Solo_espressivo_MF_D#5.opus
tune=-2
</region>

<region>
hikey=d#6
hivel=127
lokey=d6
loop_end=266036
loop_mode=loop_continuous
loop_start=98292
loop_xfade=20326
lovel=0
lpc=J2llQWEYe8HO8j5BNZFLwDuhzj+Qngw+wVLRP+XsAL4oHGM/MkAaQGTF0L8EOiFA3AakPoRHhT/FHQI//9ZTP6JgzT+x3Ve/r5tkQARUUME13iZBNCZlwLdkZb//zIY/
lpc_rms=-28.72
offset=24
pitch_keycenter=d#6
sample=Violin1Solo_espressivo_MF_D#6.opus
tune=+1
</region>

<region>
hikey=f4
hivel=127
lokey=e4
loop_end=259946
loop_mode=loop_continuous
loop_start=96042
loop_xfade=19860
lovel=0
lpc=uk9HQXPE/MHdNwtCcP2qwWZ6BkELx7jAFmKyQOp1esBY8zdAYsORv3+r/79qh3RAn8v8v7bkDMD8irdAtv6wwLKvQUAyLAPAgNoJQEsVAr7xjQbAVEb9P/Hadr/T3M0+
lpc_rms=-27.70
offset=281
pitch_keycenter=f4
sample=Violin1Solo_espressivo_MF_F4.opus
tune=-1
</region>

<region>
hikey=f5
hivel=127
lokey=e5
loop_end=305049
loop_mode=loop_continuous
loop_start=112706
loop_xfade=23306
lovel=0
lpc=aTK4QCAML8GKXB5Bh+uHwFNu4z+nWx3AE+Q3QBGHEcBjPgBAd5aDv5QpAz9k3Qu/tRjaPzSyBsDxBh9ArUWjv/FaAr8Bsbc/vp2Jv2/esT/aFmu/afD5PgOkZD6HKqQ+
lpc_rms=-33.60
pitch_keycenter=f5
sample=Violin1Solo_espressivo_MF_F5.opus
tune=-2
</region>

<region>
end=287239
hikey=f6
hivel=127
lokey=e6
loop_end=258612
loop_mode=loop_continuous
loop_start=51816
loop_xfade=23312
lovel=0
lpc=DPs7QTWrRMHmcDVBJ09KwOuBST8ytKU/ohOavUqdHD9kscY9iu1+P9GMHT5qRWU+pI1vP3Yf076gSs8/T8NVv4G7C0CfrjTBtFccQVOkzcACS/m++5MAQOEK1L/8+So/
lpc_rms=-30.84
offset=344
pitch_keycenter=f6
sample=Violin1Solo_espressivo_MF_F6.opus
tune=-2
</region>

<region>
hivel=127
key=g3
loop_end=271745
loop_mode=loop_continuous
loop_start=100402
loop_xfade=20762
lovel=0
lpc=316YQZypW8KvE4lC3fI9wp+AnUF7IgnBqfYWQYxSCcHjbaVApK8IwLx5r79SDFJARMjwv3L727+RoGFAwcRnwKKsv0A6teLAELeIQDNPLb8uMcm+77eLv4rUsj8tCUo7
lpc_rms=-26.00
offset=259
sample=Violin1Solo_espressivo_MF_G3.opus
</region>

<region>
hikey=g4
hivel=127
lokey=f#4
loop_end=263548
loop_mode=loop_continuous
loop_start=97373
loop_xfade=20135
lovel=0
lpc=OVNIQf4tBMLozBVC64a7wSXGGkFG293AnbUMQZlwqsD4qSm/oe4mQN4quL+97LC+D3GEP21XJcDGMrBANYu9wHKElEAUT2jAqJo1P7lDGEBOPRDA4+PzPwF5GMD2jcI/
lpc_rms=-25.18
offset=135
pitch_keycenter=g4
sample=Violin1Solo_espressivo_MF_G4.opus
</region>

<region>
hikey=g5
hivel=127
lokey=f#5
loop_end=267309
loop_mode=loop_continuous
loop_start=98763
loop_xfade=20423
lovel=0
lpc=WIGkQIzmD8FQJgxBN7q2wDWDikA8Yj3Av4BEQFC2OMBOnhJAwje9Pl7UUb9MuUU/6IEzvxcUST/MoQA/UKRsPleTYL54rkQ/gcSmv6tXAEAjFo2//bvvPyyZGsCHlghA
lpc_rms=-30.75
offset=333
pitch_keycenter=g5
sample=Violin1Solo_espressivo_MF_G5.opus
tune=+2
</region>

<region>
hikey=g6
hivel=127
lokey=f#6
loop_end=262313
loop_mode=loop_continuous
loop_start=96917
loop_xfade=20041
lovel=0
lpc=pD0cQeU438BbCrpAW6BMwL4n1j+2gGa/NptDQGrRIsC1s6s/LQ1sP9Kedb2L7G0/ak0RP0i9rT4Sw/Y/RI4KwYSRjEAsiA3AV1KTPxSsqz7zA60/87kjwMPVNkA9ugm/
lpc_rms=-32.95
offset=938
pitch_keycenter=g6
sample=Violin1Solo_espressivo_MF_G6.opus
</region>
</group>

<group>
group_label=FF
lpc_hicc1=127
lpc_locc1=85

<region>
hikey=a3
hivel=127
lokey=g#3
loop_end=263463
loop_mode=loop_continuous
loop_start=97342
loop_xfade=20129
lovel=0
lpc=YMQgQbw54MFo9hNC1ufrwfskZUEn743Ao98AQIz2IMBtITxAbknjvwu8br/BVTZAzb8RwAmezr1lnihAAvePwATJnECrfXzAlkwnQJlBXL/zUII+DUycvrtzFT5Ontk9
lpc_rms=-22.06
pitch_keycenter=a3
sample=Violin1Solo_espressivo_FF_A3.opus
tune=-1
</region>

<region>
hikey=a4
hivel=127
lokey=g#4
loop_end=270853
loop_mode=loop_continuous
loop_start=100072
loop_xfade=20694
lovel=0
lpc=OJczQQQ82sFVZ+ZB9ZCFwYzOwEDv7InAC/uBQNsFNcD/pS5AG9BdvwK2McCnYV1Asmxiv7i4jL9ibzZAIqiIwNjqZEBJNYS/ZEuVvqLQQz+J2/O/j0U2QG5/D8C5Gmc/
lpc_rms=-19.31
offset=55
pitch_keycenter=a4
sample=Violin1Solo_espressivo_FF_A4.opus
tune=-3
</region>

<region>
hikey=a5
hivel=127
lokey=g#5
loop_end=272009
loop_mode=loop_continuous
loop_start=100499
loop_xfade=20782
lovel=0
lpc=fvvWQDN/3cBX1tVAjoIfwLyvVEAqP26/tmAeQFgsO79mya4/hM3PPxmjK7pgwo4/Lo5GPwllgz8plpU/MtlcPz8QcT6joLs/aLSlP6/DaD6LEnI/dXS/P64kg78O1FNA
lpc_rms=-18.82
pitch_keycenter=a5
sample=Violin1Solo_espressivo_FF_A5.opus
tune=-1
</region>

<region>
hikey=a6
hivel=127
lokey=g#6
loop_end=259661
loop_mode=loop_continuous
loop_start=95937
loop_xfade=19838
lovel=0
lpc=/PkxQWg+hMA5aCtA3xEzQKxxkD8znQI/akMHv1ua2T/Y9yrAWTgtQG14M0BjEGA+7TQ/QCz4lcBwVprAokCqQOjOa8C1V2E+DhsFvywGB0DSOg4/WSU8P3NWSEB57EHA
lpc_rms=-21.99
offset=243
pitch_keycenter=a6
sample=Violin1Solo_espressivo_FF_A6.opus
tune=+3
</region>

<region>
hikey=b3
hivel=127
lokey=a#3
loop_end=277159
loop_mode=loop_continuous
loop_start=102402
loop_xfade=21175
lovel=0
lpc=yxeLQYPrRsJQboFCzDxJwiq/t0EglsfA7CSEQJpl18CcCQJBT62GwLT6jsAwsBRBnzvCwP+6vL4fkJNAbBu+wEEdx0DR2JnAw6fFP9H9yj+/c/G+CyAmwMlaHUAmhR2/
lpc_rms=-16.82
pitch_keycenter=b3
sample=Violin1Solo_espressivo_FF_B3.opus
tune=+2
</region>

<region>
hikey=b4
hivel=127
lokey=a#4
loop_end=269376
loop_mode=loop_continuous
loop_start=99527
loop_xfade=20581
lovel=0
lpc=zQ7tQEiOfcHQ0XJBtn0Fwag5rUAK197AzMnPQHppkcAnillAQg7ov801Ur5Mi2o/lTRQv9AlA75OIeY/ANfvv8kwDz82d1o/Nut0vwfiHz/rlrG9l91ovugKQj5N1sM+
lpc_rms=-19.88
pitch_keycenter=b4
sample=Violin1Solo_espressivo_FF_B4.opus
tune=+2
</region>

<region>
hikey=b5
hivel=127
lokey=a#5
loop_end=257382
loop_mode=loop_continuous
loop_start=95095
loop_xfade=19664
lovel=0
lpc=n6fHQA5+pMC8f7VAceICwNu0Q0BxmDa/OYAKQPMGlT34Cqk/FZ+UP28McD/AmSE/P7OtP67YKj9wMJo/24xMP9CJhT+EYfg+U6HvP2pjYr6bLyNAjMqlv6yFbkDdeBrA
lpc_rms=-21.37
pitch_keycenter=b5
sample=Violin1Solo_espressivo_FF_B5.opus
tune=+1
</region>

<region>
hikey=E7
hivel=127
lokey=a#6
loop_end=270744
loop_mode=loop_continuous
loop_start=100032
loop_xfade=20685
lovel=0
lpc=oxE4QS5DBMGNholAx1YOQKNSfD+03+e/j/GNQDV3xr8SBZo/cjt2QPh8mT5GxwS/55UewWVt3UAjm1e/By8awJvhmj5JnSdAEUREwJOeEUDSui0+MJknwM4Nhb4BMC1A
lpc_rms=-23.18
offset=262
pitch_keycenter=B6
sample=Violin1Solo_espressivo_FF_B6.opus
tune=-4
</region>

<region>
hikey=c#4
hivel=127
lokey=c4
loop_end=280281
loop_mode=loop_continuous
loop_start=103555
loop_xfade=21414
lovel=0
lpc=oSyUQXdBVsLqq4tCqbZSwudPq0FAp1rADfDzP9LUvMAQJAZBY+bEwBwWlr93nMlAfapswBluOMB1hglB1lQqwTJYG0GnVbvAOQOJP++/ZUDEd5XAB9IGQHaOi7/ALxk/
lpc_rms=-15.59
offset=114
pitch_keycenter=c#4
sample=Violin1Solo_espressivo_FF_C#4.opus
tune=-1
</region>

<region>
hikey=c#5
hivel=127
lokey=c5
loop_end=267688
loop_mode=loop_continuous
loop_start=98903
loop_xfade=20452
lovel=0
lpc=/t7KQH8DQcFWIyhBcTyzwPIyfUDMAMjAENbDQPTOfsAk9/A/HF3SvsKLLz9+8pS+XmJuPvy8rL7HAdE/xRbDv4iidr49XW8/0JlZv5D9AL6euDA/d48FPlLfL7+uKGg/
lpc_rms=-21.61
offset=121
pitch_keycenter=c#5
sample=Violin1Solo_espressivo_FF_C#5.opus
tune=-4
</region>

<region>
hikey=c#6
hivel=127
lokey=c6
loop_end=261111
loop_mode=loop_continuous
loop_start=96473
loop_xfade=19949
lovel=0
lpc=8dgOQZSzx8AiT7JAq0/Qv0/oP0DYbpq+kSgDQMkHdT+xUAI/K2cPQPeytD4CLPE/UHCjPnr+DkCAQ6495BgQQNu8DD9q+5Q/g1L4P4jWD7+Th3lAPr6vwD5ZMD8O7I0/
lpc_rms=-20.74
offset=142
pitch_keycenter=c#6
sample=Violin1Solo_espressivo_FF_C#6.opus
tune=-1
</region>

<region>
hikey=d#4
hivel=127
lokey=d4
loop_end=263407
loop_mode=loop_continuous
loop_start=97321
loop_xfade=20125
lovel=0
lpc=0Wj+QN6ZrsHv7uFBxsevwQURKEExa0HAZSW+P7yQB8Cgby9AenwUwFoWx72i7DJAV9M7wJP4KT9MWBBAWUmIwO0OhEAyrfS/6b0av04d7T+eLv2+Z0aMv6r5dj+5GJC+
lpc_rms=-22.17
pitch_keycenter=d#4
sample=Violin1Solo_espressivo_FF_D#4.opus
tune=-1
</region>

<region>
hikey=d#5
hivel=127
lokey=d5
loop_end=271537
loop_mode=loop_continuous
loop_start=100325
loop_xfade=20746
lovel=0
lpc=WFm2QASeR8F1PkBBufDBwGVtO0CcYm3AB6OYQGXIgMCknBVAvRbYvo7zRL8fzKc/KouEv5vGwT5uHKo/8b3mv5vPUz5aSm4/zl5QPu4xl79PAYc/hWtEv+G0Uj8zzwW+
lpc_rms=-21.33
pitch_keycenter=d#5
sample=Violin1Solo_espressivo_FF_D#5.opus
tune=-2
</region>

<region>
hikey=d#6
hivel=127
lokey=d6
loop_end=264348
loop_mode=loop_continuous
loop_start=97669
loop_xfade=20196
lovel=0
lpc=iff/QCwPosBXE4VANmHlPjh6VUAiM1Y+Jf4cQI8eLT8fHJk/niMKQMLyGz+AIvY/3jNuPyYZ8D93wIA/GPXbPyjCzD88+ko/iakSQAOBnMCmdyJAPj5ZP7Czc79ew0C/
lpc_rms=-19.37
pitch_keycenter=d#6
sample=Violin1Solo_espressivo_FF_D#6.opus
</region>

<region>
hikey=f4
hivel=127
lokey=e4
loop_end=272570
loop_mode=loop_continuous
loop_start=100707
loop_xfade=20825
lovel=0
lpc=iUAPQWiKtcEDmNJBLzSOwYr8BUGqCqTAikRYQFOSuL/Ej8i+zXkPQKY8hMAzG4JAqS3vv0ezV7+k8kNA25FfwPOyMUABHey/0IdyP0/fBT+w0ZG/dEzWPXyBgj9x/gm/
lpc_rms=-20.55
pitch_keycenter=f4
sample=Violin1Solo_espressivo_FF_F4.opus
tune=-1
</region>

<region>
hikey=f5
hivel=127
lokey=e5
loop_end=269008
loop_mode=loop_continuous
loop_start=99390
loop_xfade=20553
lovel=0
lpc=I/aiQCvWG8Fy9A1BBnl0wJFLoz9ycr+/48YCQKI7979F0uc/4sIXv1/trr3gFGs+7LcFPnd8Q78JbQBA5oW1v6ueYLwf8FA/myUYPqCsnL5n8RE/h8Z8v5lynD/CTZq9
lpc_rms=-23.29
offset=77
pitch_keycenter=f5
sample=Violin1Solo_espressivo_FF_F5.opus
tune=-2
</region>

<region>
hikey=f6
hivel=127
lokey=e6
loop_end=264408
loop_mode=loop_continuous
loop_start=97691
loop_xfade=20201
lovel=0
lpc=oQDiQH54jcD87Y9Abxy+PdEalj8mTCk/cRbjPv/kGz9PpkA/L7IXPypeBT/lpEs/YAjQPuWODj/a1VQ/JWsQP9Iejz8RM7zATntmQIPIIsDtvgm/Z6gIPRe+5r4/m68+
lpc_rms=-24.18
offset=66
pitch_keycenter=f6
sample=Violin1Solo_espressivo_FF_F6.opus
tune=-2
</region>

<region>
hivel=127
key=g3
loop_end=267243
loop_mode=loop_continuous
loop_start=98738
loop_xfade=20418
lovel=0
lpc=3EJBQaXeCML0iDFCudEFwjZlekHw+NnAd4uUQOJ9C8CrwDW+b2EzPwBs778WzHVAQjuAwPf82T+fXAVAi2akwBq51kBkctbAnWKLQFPIiL8kdds+TWn2v3WFIEB4u3a/
lpc_rms=-20.48
sample=Violin1Solo_espressivo_FF_G3.opus
tune=-1
</region>

<region>
hikey=g4
hivel=127
lokey=f#4
loop_end=275051
loop_mode=loop_continuous
loop_start=101623
loop_xfade=21014
lovel=0
lpc=xnQhQeYZ2cGiEwRCG5LEwUrZX0EROgrBh3qsQCtIOMAt4RBAk1fkviqUScBY+oNAP0TUv2lOwL+BDF1AzYWGwAi+kUCs84PAch8aQC85ij7BaBrArw8qQCEjtb+gagI/
lpc_rms=-18.06
offset=9
pitch_keycenter=g4
sample=Violin1Solo_espressivo_FF_G4.opus
</region>

<region>
hikey=g5
hivel=127
lokey=f#5
loop_end=274841
loop_mode=loop_continuous
loop_start=101546
loop_xfade=20998
lovel=0
lpc=PMdMQIc5pMAN/KFAgG8/wH34BUCYebG/N7qrP+qBlb8mn4U/OWo7PaI/br5IS84+u8sovEQuBD0h4e8+hIefvVZLVz7s2RE+5+6KvTGN+T6UAWG+gz10P8vugr81zEw/
lpc_rms=-22.79
pitch_keycenter=g5
sample=Violin1Solo_espressivo_FF_G5.opus
</region>

<region>
hikey=g6
hivel=127
lokey=f#6
loop_end=261117
loop_mode=loop_continuous
loop_start=96475
loop_xfade=19950
lovel=0
lpc=DGHpQEiwMMC/JFBAGtNnP8C34T9/vEI/zNYMQCknab7PaEu/WboQQM+wTj+4Q7M/WJ/QP1KfYD+4eRRAlgSXwFRCkz8jSrY+a9VDv1n5vL1ZOsI+TFZgv78oTj91bwpA
lpc_rms=-22.18
offset=72
pitch_keycenter=g6
sample=Violin1Solo_espressivo_FF_G6.opus
tune=-1
</region>
</group>